<mxfile host="Electron" agent="Mozilla/5.0 (Windows NT 10.0; Win64; x64) AppleWebKit/537.36 (KHTML, like Gecko) draw.io/27.0.5 Chrome/134.0.6998.205 Electron/35.3.0 Safari/537.36" version="27.0.5">
  <diagram name="Page-1" id="TB_qm0mrLz8MJTw0GmxZ">
    <mxGraphModel dx="-414" dy="562" grid="1" gridSize="10" guides="1" tooltips="1" connect="1" arrows="1" fold="1" page="1" pageScale="1" pageWidth="850" pageHeight="1100" math="0" shadow="0">
      <root>
        <mxCell id="0" />
        <mxCell id="1" parent="0" />
        <mxCell id="Ui9gyW-4gzEtYxI6x4E3-2" value="" style="ellipse;html=1;shape=startState;fillColor=#000000;strokeColor=#ff0000;rotation=-90;" parent="1" vertex="1">
          <mxGeometry x="1045" y="555" width="30" height="30" as="geometry" />
        </mxCell>
        <mxCell id="Ui9gyW-4gzEtYxI6x4E3-3" value="" style="edgeStyle=orthogonalEdgeStyle;html=1;verticalAlign=bottom;endArrow=open;endSize=8;strokeColor=#ff0000;rounded=0;entryX=0;entryY=0.5;entryDx=0;entryDy=0;" parent="1" source="Ui9gyW-4gzEtYxI6x4E3-2" target="Ui9gyW-4gzEtYxI6x4E3-6" edge="1">
          <mxGeometry relative="1" as="geometry">
            <mxPoint x="1159" y="567.5" as="targetPoint" />
          </mxGeometry>
        </mxCell>
        <mxCell id="Ui9gyW-4gzEtYxI6x4E3-4" style="edgeStyle=orthogonalEdgeStyle;rounded=0;orthogonalLoop=1;jettySize=auto;html=1;entryX=0;entryY=0.5;entryDx=0;entryDy=0;" parent="1" source="Ui9gyW-4gzEtYxI6x4E3-6" target="Ui9gyW-4gzEtYxI6x4E3-8" edge="1">
          <mxGeometry relative="1" as="geometry" />
        </mxCell>
        <mxCell id="Ui9gyW-4gzEtYxI6x4E3-6" value="Empty" style="rounded=1;whiteSpace=wrap;html=1;fillColor=#FFE6CC;" parent="1" vertex="1">
          <mxGeometry x="1122" y="522" width="119" height="95" as="geometry" />
        </mxCell>
        <mxCell id="Ui9gyW-4gzEtYxI6x4E3-31" style="edgeStyle=orthogonalEdgeStyle;rounded=0;orthogonalLoop=1;jettySize=auto;html=1;exitX=0;exitY=0.75;exitDx=0;exitDy=0;entryX=1;entryY=0.75;entryDx=0;entryDy=0;" parent="1" source="Ui9gyW-4gzEtYxI6x4E3-8" target="Ui9gyW-4gzEtYxI6x4E3-6" edge="1">
          <mxGeometry relative="1" as="geometry" />
        </mxCell>
        <mxCell id="uFtH5INIMEc_KendbT6S-2" style="edgeStyle=orthogonalEdgeStyle;rounded=0;orthogonalLoop=1;jettySize=auto;html=1;exitX=0.5;exitY=1;exitDx=0;exitDy=0;entryX=0.5;entryY=0;entryDx=0;entryDy=0;" edge="1" parent="1" source="Ui9gyW-4gzEtYxI6x4E3-8" target="uFtH5INIMEc_KendbT6S-1">
          <mxGeometry relative="1" as="geometry" />
        </mxCell>
        <mxCell id="Ui9gyW-4gzEtYxI6x4E3-8" value="Active" style="rounded=1;whiteSpace=wrap;html=1;fillColor=#FFE6CC;" parent="1" vertex="1">
          <mxGeometry x="1480" y="522.5" width="119" height="95" as="geometry" />
        </mxCell>
        <mxCell id="Ui9gyW-4gzEtYxI6x4E3-43" style="edgeStyle=orthogonalEdgeStyle;rounded=0;orthogonalLoop=1;jettySize=auto;html=1;exitX=0;exitY=0.5;exitDx=0;exitDy=0;entryX=1;entryY=0.5;entryDx=0;entryDy=0;" parent="1" source="Ui9gyW-4gzEtYxI6x4E3-18" target="Ui9gyW-4gzEtYxI6x4E3-42" edge="1">
          <mxGeometry relative="1" as="geometry" />
        </mxCell>
        <mxCell id="Ui9gyW-4gzEtYxI6x4E3-18" value="Ordered" style="rounded=1;whiteSpace=wrap;html=1;fillColor=#FFE6CC;" parent="1" vertex="1">
          <mxGeometry x="1230" y="680" width="119" height="95" as="geometry" />
        </mxCell>
        <mxCell id="Ui9gyW-4gzEtYxI6x4E3-24" value="sm Cart" style="shape=umlFrame;whiteSpace=wrap;html=1;pointerEvents=0;" parent="1" vertex="1">
          <mxGeometry x="1020" y="441" width="660" height="351" as="geometry" />
        </mxCell>
        <mxCell id="Ui9gyW-4gzEtYxI6x4E3-42" value="" style="ellipse;html=1;shape=endState;fillColor=#000000;strokeColor=#ff0000;" parent="1" vertex="1">
          <mxGeometry x="1140" y="712.5" width="30" height="30" as="geometry" />
        </mxCell>
        <mxCell id="uFtH5INIMEc_KendbT6S-3" style="edgeStyle=orthogonalEdgeStyle;rounded=0;orthogonalLoop=1;jettySize=auto;html=1;exitX=0;exitY=0.5;exitDx=0;exitDy=0;" edge="1" parent="1" source="uFtH5INIMEc_KendbT6S-1" target="Ui9gyW-4gzEtYxI6x4E3-18">
          <mxGeometry relative="1" as="geometry" />
        </mxCell>
        <mxCell id="uFtH5INIMEc_KendbT6S-1" value="Ready to checkout" style="rounded=1;whiteSpace=wrap;html=1;fillColor=#FFE6CC;" vertex="1" parent="1">
          <mxGeometry x="1480" y="680" width="119" height="95" as="geometry" />
        </mxCell>
        <mxCell id="uFtH5INIMEc_KendbT6S-4" value="&lt;b&gt;addProduct(product no)&lt;/b&gt;" style="text;html=1;align=center;verticalAlign=middle;resizable=0;points=[];autosize=1;strokeColor=none;fillColor=none;" vertex="1" parent="1">
          <mxGeometry x="1270" y="540" width="160" height="30" as="geometry" />
        </mxCell>
        <mxCell id="uFtH5INIMEc_KendbT6S-5" value="&lt;b&gt;[empty]&lt;/b&gt;" style="text;html=1;align=center;verticalAlign=middle;resizable=0;points=[];autosize=1;strokeColor=none;fillColor=none;" vertex="1" parent="1">
          <mxGeometry x="1334" y="587.5" width="70" height="30" as="geometry" />
        </mxCell>
        <mxCell id="uFtH5INIMEc_KendbT6S-7" value="&lt;b&gt;checkour()&lt;/b&gt;" style="text;html=1;align=center;verticalAlign=middle;resizable=0;points=[];autosize=1;strokeColor=none;fillColor=none;" vertex="1" parent="1">
          <mxGeometry x="1550" y="628" width="80" height="30" as="geometry" />
        </mxCell>
        <mxCell id="uFtH5INIMEc_KendbT6S-8" value="&lt;b&gt;[payment successful]&lt;/b&gt;" style="text;html=1;align=center;verticalAlign=middle;resizable=0;points=[];autosize=1;strokeColor=none;fillColor=none;" vertex="1" parent="1">
          <mxGeometry x="1344" y="700" width="150" height="30" as="geometry" />
        </mxCell>
      </root>
    </mxGraphModel>
  </diagram>
</mxfile>
